<svg width="262" height="224" viewBox="0 0 262 224" fill="none" xmlns="http://www.w3.org/2000/svg">
<g clip-path="url(#clip0_1006_93955)">
<mask id="mask0_1006_93955" style="mask-type:luminance" maskUnits="userSpaceOnUse" x="0" y="0" width="262" height="224">
<path d="M261.343 0.75H0.65625V223.25H261.343V0.75Z" fill="white"/>
</mask>
<g mask="url(#mask0_1006_93955)">
<path d="M138.609 61.83L138.577 92.9438C138.683 135.405 104.022 170.058 61.6857 170.01C44.869 169.984 29.5619 164.869 17.1562 155.918C39.4102 195.92 82.093 222.934 130.624 222.961C201.128 222.897 259.407 165.508 260.52 94.9693L260.504 94.675C260.569 93.0498 260.506 62.973 260.585 61.6416C260.496 28.1747 233.129 0.672695 199.65 0.76169C166.016 0.711137 138.504 28.0687 138.609 61.83Z" fill="white"/>
<path d="M61.6177 32.0636C28.0032 32.0636 0.65625 59.4024 0.65625 93.006C0.65625 126.607 28.0032 153.946 61.6177 153.946C95.2335 153.946 122.581 126.607 122.581 93.006C122.581 59.4024 95.2335 32.0636 61.6177 32.0636Z" fill="white"/>
</g>
</g>
<defs>
<clipPath id="clip0_1006_93955">
<rect width="260.686" height="222.5" fill="white" transform="translate(0.65625 0.75)"/>
</clipPath>
</defs>
</svg>
