<svg xml:space="preserve" viewBox="0 0 100 100" y="0" x="0" xmlns="http://www.w3.org/2000/svg" id="Layer_1" version="1.1" preserveAspectRatio="xMidYMid" width="381" height="381" xmlns:xlink="http://www.w3.org/1999/xlink" style="margin-top:0px;margin-right:0px;margin-bottom:0px;margin-left:0px;display:block;shape-rendering:auto;background-position-x:0%;background-position-y:0%;background-size:auto;background-origin:padding-box;background-clip:border-box;background:scroll rgba(0, 0, 0, 0) none  repeat;width:381px;height:381px;;animation:none"><g class="ldl-scale" style="transform-origin:50px 50px;transform:matrix(0.8, 0, 0, 0.8, 0, 0);;animation:none"><g class="ldl-ani"><g class="ldl-layer"><g class="ldl-ani" style="transform-box:view-box;transform-origin:50px 50px;transform:matrix(1.03, 0, 0, 1.03, 0, 0);animation-duration:1.51515s;animation-timing-function:linear;animation-delay:-0.841751s;animation-iteration-count:infinite;animation-direction:normal;animation-fill-mode:forwards;animation-play-state:paused;animation-name:animate;animation-timeline:auto;animation-range-start:normal;animation-range-end:normal;;animation:none"><path stroke="#333" fill="#666766" stroke-miterlimit="10" stroke-width="3.5" d="M70.017 58c-13.344 9.178-26.689 9.178-40.033 0-1.755-1.207-2.77-3.233-2.77-5.363v-11.26c0-1.754 1.842-2.926 3.414-2.146 12.915 6.408 25.83 6.408 38.745 0 1.572-.78 3.414.392 3.414 2.146v11.26c-.001 2.131-1.015 4.156-2.77 5.363z" style="stroke-width:3.5px;fill:rgb(255, 255, 255);stroke:rgb(222, 222, 222);;animation:none"></path></g></g>
<g class="ldl-layer"><g class="ldl-ani" style="transform-box:view-box;transform-origin:50px 50px;transform:matrix(1.0209, 0, 0, 1.0209, 0, 0);animation-duration:1.51515s;animation-timing-function:linear;animation-delay:-0.925926s;animation-iteration-count:infinite;animation-direction:normal;animation-fill-mode:forwards;animation-play-state:paused;animation-name:animate;animation-timeline:auto;animation-range-start:normal;animation-range-end:normal;;animation:none"><path stroke-miterlimit="10" stroke-width="3.5" stroke="#000" stroke-linejoin="round" opacity=".5" d="M69.373 39.231a49.825 49.825 0 0 1-5.873 2.454v7.858c0 4.771-1.014 9.307-2.77 12.011-.39.6-.779 1.179-1.169 1.744 3.485-1.145 6.97-2.9 10.456-5.297 1.755-1.207 2.77-3.233 2.77-5.363v-11.26c-.001-1.755-1.843-2.926-3.414-2.147z" style="stroke-width:3.5px;fill:rgb(180, 180, 180);stroke:rgb(180, 180, 180);opacity:0.5;;animation:none"></path></g></g>
<g class="ldl-layer"><g class="ldl-ani" style="transform-box:view-box;transform-origin:50px 50px;transform:matrix(1.00333, 0, 0, 1.00333, 0, 0);animation-duration:1.51515s;animation-timing-function:linear;animation-delay:-1.0101s;animation-iteration-count:infinite;animation-direction:normal;animation-fill-mode:forwards;animation-play-state:paused;animation-name:animate;animation-timeline:auto;animation-range-start:normal;animation-range-end:normal;;animation:none"><path d="M32.333 43.636v9.833" stroke-miterlimit="10" stroke-width="3.5" stroke-linecap="round" stroke="#333" fill="none" style="stroke-width:3.5px;stroke:rgb(222, 222, 222);fill:none;;animation:none"></path></g></g>
<g class="ldl-layer"><g class="ldl-ani" style="transform-box:view-box;transform-origin:50px 50px;transform:matrix(0.979452, 0, 0, 0.979452, 0, 0);animation-duration:1.51515s;animation-timing-function:linear;animation-delay:-1.09428s;animation-iteration-count:infinite;animation-direction:normal;animation-fill-mode:forwards;animation-play-state:paused;animation-name:animate;animation-timeline:auto;animation-range-start:normal;animation-range-end:normal;;animation:none"><path fill="#333" d="M85.227 56.694v-4.798a3.988 3.988 0 0 0 2.25-3.581c0-1.578-.922-2.93-2.25-3.581v-8.14h-3.5v8.14a3.987 3.987 0 0 0-2.25 3.581c0 1.578.922 2.93 2.25 3.581v4.798a3.987 3.987 0 0 0-2.25 3.581v18.829h8V60.275c0-1.579-.923-2.93-2.25-3.581z" style="stroke-width:1px;fill:rgb(222, 222, 222);;animation:none"></path></g></g>
<g class="ldl-layer"><g class="ldl-ani" style="transform-box:view-box;transform-origin:50px 50px;transform:matrix(0.96082, 0, 0, 0.96082, 0, 0);animation-duration:1.51515s;animation-timing-function:linear;animation-delay:-1.17845s;animation-iteration-count:infinite;animation-direction:normal;animation-fill-mode:forwards;animation-play-state:paused;animation-name:animate;animation-timeline:auto;animation-range-start:normal;animation-range-end:normal;;animation:none"><path opacity=".5" d="M87.477 48.315c0-1.578-.922-2.93-2.25-3.581v-8.14h-1.75v42.509h4V60.275c0-1.578-.922-2.93-2.25-3.581v-4.798a3.99 3.99 0 0 0 2.25-3.581z" style="stroke-width:1px;fill:rgb(180, 180, 180);opacity:0.5;;animation:none"></path></g></g>
<g class="ldl-layer"><g class="ldl-ani" style="transform-box:view-box;transform-origin:50px 50px;transform:matrix(0.935118, 0, 0, 0.935118, 0, 0);animation-duration:1.51515s;animation-timing-function:linear;animation-delay:-1.26263s;animation-iteration-count:infinite;animation-direction:normal;animation-fill-mode:forwards;animation-play-state:paused;animation-name:animate;animation-timeline:auto;animation-range-start:normal;animation-range-end:normal;;animation:none"><path stroke-miterlimit="10" stroke-width="3.5" stroke="#333" fill="#333" d="M88.902 37.483L50.605 51.196a1.5 1.5 0 0 1-1.21 0L11.098 37.483c-1.464-.526-1.464-2.221 0-2.747l38.297-13.713a1.5 1.5 0 0 1 1.21 0l38.297 13.713c1.464.527 1.464 2.221 0 2.747z" style="stroke-width:3.5px;fill:rgb(222, 222, 222);stroke:rgb(222, 222, 222);;animation:none"></path></g></g>
<g class="ldl-layer"><g class="ldl-ani" style="transform-box:view-box;transform-origin:50px 50px;transform:matrix(0.918326, 0, 0, 0.918326, 0, 0);animation-duration:1.51515s;animation-timing-function:linear;animation-delay:-1.3468s;animation-iteration-count:infinite;animation-direction:normal;animation-fill-mode:forwards;animation-play-state:paused;animation-name:animate;animation-timeline:auto;animation-range-start:normal;animation-range-end:normal;;animation:none"><path stroke-miterlimit="10" stroke-width="3.5" stroke="#000" opacity=".5" d="M88.902 34.737l-19.157-6.86c0 .052.005.103.005.155 0 7.433-3.55 14.27-9.492 19.708l28.644-10.256c1.464-.527 1.464-2.221 0-2.747z" style="stroke-width:3.5px;fill:rgb(180, 180, 180);stroke:rgb(180, 180, 180);opacity:0.5;;animation:none"></path></g></g>
<g class="ldl-layer"><g class="ldl-ani" style="transform-box:view-box;transform-origin:50px 50px;transform:matrix(0.91, 0, 0, 0.91, 0, 0);animation-duration:1.51515s;animation-timing-function:linear;animation-delay:-1.43098s;animation-iteration-count:infinite;animation-direction:normal;animation-fill-mode:forwards;animation-play-state:paused;animation-name:animate;animation-timeline:auto;animation-range-start:normal;animation-range-end:normal;;animation:none"><ellipse fill="#666766" ry="3.485" rx="4.713" cy="33.459" cx="50" style="stroke-width:1px;fill:rgb(255, 255, 255);;animation:none"></ellipse></g></g>
<g class="ldl-layer"><g class="ldl-ani" style="transform-box:view-box;transform-origin:50px 50px;transform:matrix(0.91, 0, 0, 0.91, 0, 0);animation-duration:1.51515s;animation-timing-function:linear;animation-delay:-1.51515s;animation-iteration-count:infinite;animation-direction:normal;animation-fill-mode:forwards;animation-play-state:paused;animation-name:animate;animation-timeline:auto;animation-range-start:normal;animation-range-end:normal;;animation:none"><path opacity=".2" d="M50 29.974c-.147 0-.285.022-.429.032 1.2.163 2.142 1.637 2.142 3.453 0 1.816-.943 3.291-2.142 3.453.143.01.282.032.429.032 2.603 0 4.713-1.56 4.713-3.485 0-1.925-2.11-3.485-4.713-3.485z" style="stroke-width:1px;fill:rgb(180, 180, 180);opacity:0.2;;animation:none"></path></g></g>
<metadata xmlns:d="https://loading.io/stock/"></metadata></g></g>
<STYLE type="text/css">@keyframes animate { 0.00% {transform: translate(0.00px,0.00px) rotate(0.00deg) scale(0.91, 0.91) skew(0deg, 0.00deg) ;opacity: 1.00;}4.00% {transform: translate(0.00px,0.00px) rotate(0.00deg) scale(0.91, 0.91) ;}8.00% {animation-timing-function: cubic-bezier(0.69,0.60,0.35,0.27);transform: translate(0.00px,0.00px) rotate(0.00deg) scale(0.91, 0.91) ;}14.00% {transform: translate(0.00px,0.00px) rotate(0.00deg) scale(0.93, 0.93) ;}18.00% {transform: translate(0.00px,0.00px) rotate(0.00deg) scale(0.94, 0.94) ;}22.00% {animation-timing-function: cubic-bezier(0.67,0.66,0.34,0.33);transform: translate(0.00px,0.00px) rotate(0.00deg) scale(0.96, 0.96) ;}26.00% {transform: translate(0.00px,0.00px) rotate(0.00deg) scale(0.97, 0.97) ;}30.00% {transform: translate(0.00px,0.00px) rotate(0.00deg) scale(0.99, 0.99) ;}34.00% {animation-timing-function: cubic-bezier(0.65,0.71,0.32,0.38);transform: translate(0.00px,0.00px) rotate(0.00deg) scale(1.01, 1.01) ;}40.00% {animation-timing-function: cubic-bezier(0.64,0.74,0.31,0.41);transform: translate(0.00px,0.00px) rotate(0.00deg) scale(1.02, 1.02) ;}46.00% {animation-timing-function: cubic-bezier(0.60,0.91,0.23,0.63);transform: translate(0.00px,0.00px) rotate(0.00deg) scale(1.03, 1.03) ;}50.00% {transform: translate(0.00px,0.00px) rotate(0.00deg) scale(1.03, 1.03) ;}54.00% {transform: translate(0.00px,0.00px) rotate(0.00deg) scale(1.03, 1.03) ;}58.00% {animation-timing-function: cubic-bezier(0.69,0.60,0.35,0.27);transform: translate(0.00px,0.00px) rotate(0.00deg) scale(1.03, 1.03) ;}64.00% {transform: translate(0.00px,0.00px) rotate(0.00deg) scale(1.01, 1.01) ;}68.00% {transform: translate(0.00px,0.00px) rotate(0.00deg) scale(1.00, 1.00) ;}72.00% {animation-timing-function: cubic-bezier(0.67,0.66,0.34,0.33);transform: translate(0.00px,0.00px) rotate(0.00deg) scale(0.98, 0.98) ;}76.00% {animation-timing-function: cubic-bezier(0.66,0.68,0.33,0.35);transform: translate(0.00px,0.00px) rotate(0.00deg) scale(0.97, 0.97) ;}82.00% {animation-timing-function: cubic-bezier(0.65,0.71,0.32,0.38);transform: translate(0.00px,0.00px) rotate(0.00deg) scale(0.94, 0.94) ;}88.00% {animation-timing-function: cubic-bezier(0.65,0.73,0.31,0.40);transform: translate(0.00px,0.00px) rotate(0.00deg) scale(0.92, 0.92) ;}94.00% {animation-timing-function: cubic-bezier(0.63,0.80,0.28,0.48);transform: translate(0.00px,0.00px) rotate(0.00deg) scale(0.91, 0.91) ;}100.00% {animation-timing-function: cubic-bezier(0.63,0.80,0.28,0.48);transform: translate(0.00px,0.00px) rotate(0.00deg) scale(0.91, 0.91) ;} }</STYLE><!-- [ldio] generated by https://loading.io --></svg>